<svg xmlns="http://www.w3.org/2000/svg" viewBox="0 0 128 128">
  <defs>
    <linearGradient id="bg" x1="0" y1="0" x2="1" y2="1">
      <stop offset="0%" stop-color="#1DB954"/>
      <stop offset="100%" stop-color="#169c48"/>
    </linearGradient>
    <linearGradient id="shield" x1="0" y1="0" x2="0" y2="1">
      <stop offset="0%" stop-color="#eafff1"/>
      <stop offset="100%" stop-color="#b7f4cc"/>
    </linearGradient>
  </defs>

  <rect width="128" height="128" rx="28" fill="url(#bg)"/>

  <path d="M64 13l36 12v30c0 25-15 46-36 58-21-12-36-33-36-58V25l36-12z" fill="url(#shield)"/>
  <path d="M64 17l32 10v28c0 22-13 41-32 53-19-12-32-31-32-53V27l32-10z" fill="none" stroke="#0f6b34" stroke-opacity="0.45" stroke-width="2"/>

  <g transform="translate(64 64)">
    <g fill="#ffffff" stroke="#0f6b34" stroke-opacity="0.22" stroke-width="1.2">
      <rect x="-10" y="-33" width="20" height="30" rx="10"/>
      <rect x="-10" y="-33" width="20" height="30" rx="10" transform="rotate(60)"/>
      <rect x="-10" y="-33" width="20" height="30" rx="10" transform="rotate(120)"/>
      <rect x="-10" y="-33" width="20" height="30" rx="10" transform="rotate(180)"/>
      <rect x="-10" y="-33" width="20" height="30" rx="10" transform="rotate(240)"/>
      <rect x="-10" y="-33" width="20" height="30" rx="10" transform="rotate(300)"/>
    </g>
    <circle r="9.5" fill="url(#shield)"/>

    <g fill="none" stroke="#0f6b34" stroke-width="2.1" stroke-linecap="round" stroke-opacity="0.7">
      <path d="M-6 -2c2-3 6-4 9-2"/>
      <path d="M-5 4c3 1 7 1 10-1"/>
      <path d="M-2 8c2 1 4 1 6 0"/>
    </g>
  </g>
</svg>
